<?xml version="1.0" standalone="no"?>
<!DOCTYPE svg PUBLIC "-//W3C//DTD SVG 20010904//EN"
 "http://www.w3.org/TR/2001/REC-SVG-20010904/DTD/svg10.dtd">
<svg version="1.0" xmlns="http://www.w3.org/2000/svg"
 width="1504.000000pt" height="2048.000000pt" viewBox="0 0 1504.000000 2048.000000"
 preserveAspectRatio="xMidYMid meet">

<g transform="translate(0.000000,2048.000000) scale(0.100000,-0.100000)"
fill="#000000" stroke="none">
<path d="M590 13500 l0 -6980 6930 0 6930 0 0 6980 0 6980 -6930 0 -6930 0 0
-6980z m13630 0 l0 -6750 -325 0 c-253 0 -325 3 -325 13 -1 6 -9 81 -19 165
-18 142 -21 156 -47 183 l-28 29 -57 747 -57 748 34 58 34 58 0 163 0 164 -43
11 c-24 6 -70 13 -103 17 -87 9 -89 10 -70 39 12 18 16 49 16 124 0 91 2 100
20 106 11 3 20 11 20 16 0 5 -76 161 -169 347 l-168 337 -8 193 -7 192 44 0
c24 0 50 -6 57 -12 10 -11 12 -2 9 42 l-3 54 -55 11 c-52 9 -55 12 -58 43 -2
17 -7 32 -13 32 -5 0 -9 -111 -9 -277 l0 -277 -61 -121 c-34 -66 -113 -218
-176 -338 -108 -203 -114 -219 -99 -236 12 -14 16 -40 16 -117 0 -82 4 -104
20 -129 l20 -30 -85 -11 c-125 -17 -115 -4 -115 -151 0 -150 5 -171 36 -184
18 -6 24 -16 24 -39 l0 -30 -84 0 c-72 0 -94 -4 -150 -30 l-66 -29 0 -81 0
-80 -45 0 -45 0 0 46 0 45 -52 -3 -53 -3 -3 -43 c-3 -42 -3 -42 -43 -42 l-39
0 0 45 0 45 -55 0 -55 0 0 -51 0 -50 -47 3 -48 3 -11 86 c-7 47 -17 96 -23
107 -9 16 -9 27 -1 43 14 25 21 14 -169 254 l-150 190 -1 73 0 72 -40 0 c-24
0 -42 5 -45 13 -2 6 -9 149 -14 317 l-11 304 55 100 55 99 0 133 c0 74 -4 135
-10 139 -5 3 -39 8 -75 12 l-65 6 0 -42 c0 -40 -1 -41 -35 -41 l-35 0 0 170 0
170 25 0 c14 0 25 2 25 3 0 2 -27 61 -60 131 -114 239 -182 433 -234 666 -25
116 -62 364 -67 454 l-3 48 43 15 c33 11 50 12 76 3 19 -6 38 -9 42 -7 5 3 7
25 5 50 -4 42 -6 45 -42 56 -26 8 -46 8 -65 1 -41 -15 -61 -12 -72 13 -16 33
-19 14 -32 -176 -28 -393 -93 -701 -230 -1081 -34 -93 -61 -171 -61 -173 0 -1
11 -3 25 -3 l25 0 0 -170 0 -170 -30 0 c-28 0 -30 2 -30 40 l0 40 -49 0 c-84
0 -81 6 -81 -152 l0 -141 50 -92 50 -92 -8 -169 -7 -169 -48 122 c-38 94 -53
122 -70 127 -12 3 -75 6 -139 6 l-118 0 0 278 0 279 28 39 c16 21 36 45 45 53
15 12 17 40 17 236 0 198 2 227 19 266 11 24 23 61 26 82 7 35 6 37 -18 37
-24 0 -27 6 -41 73 -9 39 -33 151 -54 247 l-39 175 -36 -155 c-20 -85 -45
-191 -56 -235 l-19 -80 -16 37 c-43 100 -96 389 -96 525 0 70 -8 75 -25 15
l-11 -37 -61 -3 -62 -3 -14 46 -13 47 -12 -115 c-12 -110 -63 -342 -79 -358
-5 -5 -33 63 -64 149 l-55 157 20 57 21 57 -83 453 c-45 249 -82 474 -82 499
0 37 8 58 36 100 l36 54 -6 98 c-6 90 -4 101 15 129 l22 30 -25 23 c-22 21
-25 34 -38 181 -18 217 -22 228 -44 118 -20 -96 -32 -121 -40 -83 -4 21 -51
797 -103 1704 -16 283 -24 348 -43 329 -5 -5 -20 -207 -35 -449 -14 -242 -41
-696 -60 -1010 -19 -313 -35 -575 -35 -582 0 -7 -4 -13 -9 -13 -5 0 -16 35
-26 78 -29 136 -30 135 -48 -64 -15 -165 -19 -191 -37 -206 -25 -20 -25 -32
-1 -66 17 -24 18 -36 9 -126 -8 -91 -7 -100 10 -120 29 -31 51 -78 58 -125 l7
-41 -127 0 -126 0 0 180 c0 192 8 233 49 262 27 19 44 120 25 146 -19 24 -17
82 3 104 16 18 15 23 -5 93 -16 53 -22 101 -22 165 0 49 -3 90 -6 90 -3 0 -19
-9 -34 -20 -27 -20 -30 -20 -64 -3 -30 14 -36 22 -40 57 -8 62 -24 567 -38
1169 l-11 537 21 23 c31 33 52 90 52 143 0 38 5 51 30 74 25 23 30 36 30 73 0
25 -5 68 -12 96 -8 38 -8 57 0 75 6 14 8 28 3 30 -5 3 -52 11 -105 17 l-96 12
0 459 0 458 -35 0 -35 0 0 -136 c0 -103 -3 -135 -12 -132 -9 3 -23 145 -49
514 -21 280 -36 510 -35 512 5 4 424 -68 596 -103 1017 -209 2008 -590 2870
-1104 170 -101 181 -108 155 -86 -35 29 -295 185 -460 278 -771 431 -1638 761
-2507 956 -214 48 -496 102 -605 117 -64 8 -56 -29 -83 379 -11 171 -22 327
-25 347 -5 36 6 56 40 75 7 5 16 25 20 46 7 35 6 37 -17 37 -24 0 -25 4 -32
77 -11 133 -8 211 10 239 16 24 16 27 -5 54 -17 24 -21 43 -21 105 0 73 1 76
27 86 35 13 69 5 123 -31 36 -24 56 -30 101 -30 30 0 60 -5 67 -12 9 -9 12 9
12 83 0 61 -4 99 -12 107 -7 7 -33 12 -59 12 -35 0 -55 6 -76 24 -47 39 -72
48 -131 45 -51 -3 -57 -1 -60 17 -2 12 4 27 13 34 38 32 -1 94 -45 70 -22 -12
-27 -49 -9 -67 7 -7 10 -75 7 -209 -2 -170 -6 -203 -20 -224 -22 -30 -23 -48
-2 -71 13 -15 14 -38 8 -163 l-7 -146 -25 0 c-23 0 -24 -3 -19 -36 4 -21 16
-43 31 -55 23 -18 26 -28 26 -77 -1 -85 -46 -672 -53 -678 -3 -3 -61 1 -129
10 -634 81 -1376 92 -2038 30 -1319 -122 -2594 -533 -3697 -1190 -483 -288
-989 -669 -1386 -1043 l-37 -35 0 2377 0 2377 6700 0 6700 0 0 -6750z m-6794
4210 c262 -15 671 -53 679 -62 2 -2 -72 -1033 -74 -1045 -1 -2 -8 -3 -16 -3
-13 0 -15 22 -15 135 l0 135 -35 0 -35 0 0 -459 0 -458 -92 -12 c-50 -7 -95
-14 -100 -17 -4 -3 -3 -15 3 -26 11 -20 10 -31 -11 -131 -11 -56 4 -107 39
-129 16 -10 21 -23 21 -59 0 -59 16 -107 47 -141 l25 -26 -11 -494 c-13 -597
-30 -1120 -39 -1208 -6 -51 -11 -65 -25 -68 -43 -8 -47 10 -47 209 0 114 4
190 10 194 15 9 12 52 -5 69 -8 8 -15 27 -15 43 0 48 -12 103 -21 97 -5 -3 -9
-31 -9 -63 0 -40 -5 -63 -15 -71 -17 -14 -20 -66 -5 -75 6 -3 10 -24 10 -46 0
-37 -2 -39 -31 -39 -17 0 -52 9 -78 21 l-49 20 -6 447 c-3 246 -8 470 -9 499
-4 51 -3 53 40 83 61 44 59 69 -11 115 l-53 36 -6 112 c-4 62 -10 173 -14 247
l-6 135 -26 -55 c-24 -52 -26 -53 -28 -25 -1 17 -16 345 -33 730 -30 680 -35
753 -46 742 -5 -5 -72 -1334 -74 -1462 l-1 -40 -28 54 -28 54 -7 -184 c-4
-101 -9 -212 -13 -246 -6 -62 -6 -63 -54 -94 -42 -26 -49 -36 -49 -63 0 -25 8
-37 41 -60 l40 -28 -5 -202 c-4 -110 -9 -335 -12 -498 l-6 -298 -34 0 -34 0 0
-80 0 -80 -105 0 -105 0 6 28 c4 15 13 37 20 49 21 33 17 58 -10 73 -29 15
-27 7 -61 230 -15 96 -29 182 -32 190 -9 25 -19 -22 -49 -215 -26 -173 -28
-181 -57 -206 l-30 -26 21 -45 c21 -41 22 -59 22 -274 0 -126 -4 -235 -9 -243
-5 -8 2 -33 21 -70 53 -99 62 -102 107 -33 l31 47 0 -138 c0 -125 -4 -154 -36
-287 -19 -82 -42 -154 -50 -161 -18 -15 -18 -38 1 -45 12 -5 15 -29 15 -125
l0 -119 -69 0 -68 0 -7 33 c-14 72 -78 338 -81 335 -2 -2 -27 -91 -55 -198
-35 -128 -49 -195 -41 -198 7 -2 11 -51 11 -148 l0 -144 -225 0 -225 0 0 93
c0 76 4 96 20 117 15 20 20 41 20 102 0 106 -5 116 -41 82 -16 -15 -30 -26
-32 -23 -2 2 -27 45 -55 95 -28 50 -104 188 -170 306 l-121 215 -7 96 c-5 71
-3 101 6 112 10 12 8 16 -14 25 -25 9 -26 12 -26 89 0 70 3 82 20 91 27 14 25
28 -5 42 -21 9 -25 18 -25 53 0 35 5 46 27 60 l27 18 -26 21 -26 21 -8 283
c-7 302 -7 303 40 267 30 -23 36 -18 36 29 0 42 -2 46 -51 76 -28 17 -54 29
-56 26 -3 -3 -10 -157 -15 -343 l-10 -338 -26 -22 -27 -21 28 -13 c24 -11 27
-17 27 -61 0 -43 -3 -50 -25 -58 -30 -11 -32 -26 -5 -40 17 -9 20 -21 20 -91
0 -77 -1 -80 -26 -89 -22 -9 -24 -13 -14 -25 9 -11 11 -42 7 -110 l-5 -94
-166 -298 c-91 -164 -170 -305 -176 -313 -8 -12 -14 -10 -40 15 l-30 29 0
-100 c0 -73 4 -106 15 -120 11 -14 14 -49 15 -137 0 -105 3 -123 25 -167 30
-60 30 -58 3 -62 l-23 -3 -3 -867 -2 -868 -166 0 -165 0 -45 96 c-25 53 -63
136 -85 183 l-40 86 -105 -240 -106 -240 2 -313 1 -312 25 -25 c21 -22 24 -33
24 -104 l0 -81 -268 -317 c-148 -175 -274 -318 -281 -318 -29 0 -154 183 -190
278 -11 28 -12 27 -61 -70 -28 -56 -73 -125 -105 -161 -57 -66 -60 -72 -47
-88 4 -5 6 -42 4 -81 l-4 -73 -39 0 c-39 0 -39 0 -39 41 l0 40 -42 -3 c-42 -3
-43 -4 -46 -40 -3 -36 -5 -38 -38 -38 -33 0 -34 1 -34 40 l0 40 -44 0 c-44 0
-45 0 -48 -37 -3 -36 -5 -38 -39 -41 l-37 -3 -6 63 c-3 35 -6 131 -7 213 -2
143 -1 153 24 204 29 60 27 71 -9 71 l-24 0 0 115 0 115 25 0 c14 0 25 2 25 5
0 3 -16 62 -36 133 -33 115 -154 616 -154 635 0 5 -4 6 -9 3 -5 -3 -12 -26
-15 -51 -9 -54 -150 -618 -165 -657 -10 -26 -14 -28 -71 -28 l-60 0 0 113 c0
101 2 116 20 132 17 16 20 31 20 116 0 74 4 101 15 113 14 14 9 32 -54 183
-181 438 -271 665 -271 683 0 11 7 37 16 58 14 35 14 38 -5 54 -20 15 -21 27
-21 195 0 327 -12 583 -26 583 -8 0 -16 -10 -18 -22 -3 -13 -7 -185 -10 -383
-4 -330 -6 -360 -22 -372 -17 -13 -17 -15 -1 -66 l18 -52 -36 -90 c-21 -49
-98 -238 -172 -420 -109 -266 -133 -333 -124 -347 6 -10 11 -61 11 -113 0 -89
2 -98 25 -119 23 -22 25 -30 25 -114 l0 -91 -32 -3 c-28 -2 -34 -8 -36 -30 -3
-25 -8 -28 -38 -28 -31 0 -34 2 -34 30 0 28 -2 30 -40 30 l-40 0 0 -176 c0
-157 2 -180 19 -208 11 -17 27 -60 36 -96 17 -64 16 -79 -39 -875 -31 -445
-56 -816 -56 -822 0 -8 -15 -13 -40 -13 -25 0 -40 -5 -41 -12 0 -7 -8 -94 -17
-193 l-17 -180 -392 -3 -393 -2 0 4274 0 4274 132 125 c178 167 313 285 494
430 1363 1096 3117 1751 4964 1856 214 12 811 13 1016 1z m792 -1344 c19 -60
-11 -147 -41 -117 -17 17 -34 76 -26 92 4 8 12 27 18 42 15 37 33 30 49 -17z
m-143 -10 c11 -31 11 -45 1 -74 -7 -21 -20 -38 -28 -40 -21 -4 -40 65 -29 106
19 65 36 67 56 8z m280 0 c11 -31 11 -45 1 -74 -15 -43 -31 -51 -46 -21 -15
28 -16 76 -1 112 14 37 30 31 46 -17z m-275 -276 l0 -120 -30 0 -30 0 0 113
c0 63 3 117 7 120 3 4 17 7 30 7 23 0 23 -1 23 -120z m150 0 l0 -120 -40 0
-40 0 0 120 0 120 40 0 40 0 0 -120z m124 98 c0 -10 -1 -63 -2 -118 -2 -100
-2 -100 -27 -100 l-25 0 0 121 0 120 28 -3 c18 -2 27 -9 26 -20z m-1054 -773
c0 -63 -1 -65 -25 -65 -24 0 -25 2 -25 65 0 63 1 65 25 65 24 0 25 -2 25 -65z
m120 0 c0 -63 -1 -65 -25 -65 -24 0 -25 2 -25 65 0 63 1 65 25 65 24 0 25 -2
25 -65z m-312 -1687 l3 -48 -35 0 -36 0 0 51 0 50 33 -3 c31 -3 32 -5 35 -50z
m-168 -33 c0 -52 -1 -55 -25 -55 -24 0 -25 3 -25 55 0 52 1 55 25 55 24 0 25
-3 25 -55z m268 -182 l3 -73 -36 0 -35 0 0 76 0 75 33 -3 32 -3 3 -72z m1389
-8 c42 -13 53 -21 62 -47 17 -48 15 -59 -11 -49 -13 5 -57 14 -98 21 -41 7
-80 17 -86 22 -7 5 -14 25 -16 45 l-4 35 50 -6 c28 -3 74 -12 103 -21z m529
-157 c-10 -162 -13 -175 -42 -175 -13 0 -24 0 -25 1 -4 9 -26 273 -22 279 2 4
25 7 50 7 l46 0 -7 -112z m-2046 -23 l0 -55 -40 0 -40 0 0 55 0 55 40 0 40 0
0 -55z m1500 -53 c127 -31 163 -59 127 -100 -8 -9 -20 -35 -27 -57 -20 -64
-30 -64 -30 -2 0 31 -4 57 -9 57 -13 0 -46 -43 -61 -80 -19 -47 -30 -36 -30
31 0 61 0 61 -22 47 -13 -8 -33 -36 -46 -62 -12 -26 -27 -44 -32 -41 -6 4 -10
35 -10 71 0 35 -4 64 -8 64 -5 0 -4 20 2 45 10 41 13 45 41 45 16 0 64 -8 105
-18z m-1002 -72 c19 -33 28 -40 55 -40 50 -1 63 -29 59 -127 l-4 -83 -138 0
-138 0 -4 83 c-4 100 8 127 58 127 29 0 36 5 54 40 11 22 24 40 28 40 4 0 17
-18 30 -40z m-130 -319 l24 -6 -21 -27 c-15 -18 -21 -40 -21 -75 l1 -48 58 62
58 63 62 -64 61 -64 0 51 c0 38 -5 56 -22 74 -12 13 -18 26 -14 30 4 5 34 8
66 8 32 0 62 -3 66 -8 4 -4 -2 -17 -14 -30 -20 -21 -22 -34 -22 -130 0 -59 -4
-109 -10 -112 -5 -3 -26 6 -45 21 l-35 26 0 -120 0 -121 -44 -35 c-23 -20 -46
-36 -50 -36 -3 0 -27 19 -51 41 l-45 42 0 114 0 115 -30 -26 c-51 -43 -60 -29
-60 94 0 94 -2 109 -20 125 -11 10 -20 22 -20 26 0 16 83 23 128 10z m-370
-50 c11 -6 11 -17 3 -48 l-11 -40 -105 0 -105 0 -12 39 c-10 33 -9 41 3 49 18
11 209 12 227 0z m1180 0 c11 -6 11 -17 3 -48 l-11 -40 -105 0 -105 0 -12 39
c-10 33 -9 41 3 49 18 11 209 12 227 0z m181 -32 l31 -11 0 -539 0 -539 -35 0
-35 0 0 550 c0 303 2 550 4 550 1 0 17 -5 35 -11z m-1394 -136 c-5 -16 -10
-128 -12 -250 l-4 -223 -50 0 -49 0 0 54 c0 54 -1 55 -42 78 -24 13 -43 30
-43 38 0 11 10 14 43 12 l42 -4 0 67 c0 49 -4 67 -15 71 -22 9 -18 42 5 49 16
5 20 15 20 51 l0 44 -47 0 c-45 0 -46 0 -28 20 15 17 31 20 103 20 l84 0 -7
-27z m1180 0 c-5 -16 -10 -128 -12 -250 l-4 -223 -50 0 -49 0 0 54 c0 54 -1
55 -42 78 -24 13 -43 30 -43 38 0 11 10 14 43 12 l42 -4 0 67 c0 49 -4 67 -15
71 -21 8 -19 32 5 46 15 10 20 24 20 55 l0 43 -47 0 c-45 0 -46 0 -28 20 15
17 31 20 103 20 l84 0 -7 -27z m454 -144 l31 -11 0 -424 0 -424 -35 0 -35 0 0
435 c0 239 2 435 4 435 1 0 17 -5 35 -11z m-2866 -8 c76 -5 139 -10 140 -12 2
-2 1 -37 -1 -76 l-4 -73 -29 0 c-28 0 -29 2 -29 45 0 41 -2 45 -25 45 -23 0
-25 -4 -25 -45 0 -43 -1 -45 -29 -45 -28 0 -30 2 -33 48 -3 43 -5 47 -28 47
-23 0 -25 -4 -28 -47 -3 -47 -4 -48 -38 -48 l-34 0 0 50 c0 47 -2 50 -25 50
-23 0 -25 -3 -25 -50 l0 -50 -40 0 -40 0 0 50 c0 47 -2 50 -25 50 -23 0 -25
-3 -25 -50 l0 -50 -35 0 -35 0 0 50 c0 47 -2 50 -25 50 -23 0 -25 -3 -25 -50
0 -49 -1 -50 -30 -50 l-30 0 0 79 0 80 53 4 c103 7 334 6 470 -2z m-583 -116
c0 -38 -3 -45 -20 -45 -17 0 -20 7 -20 45 0 38 3 45 20 45 17 0 20 -7 20 -45z
m3338 -1 c22 -6 22 -9 22 -150 0 -135 -1 -144 -19 -144 -50 0 -51 3 -51 156 0
152 0 151 48 138z m-1798 -156 l0 -88 -45 0 -45 0 0 89 c0 76 3 92 22 116 l22
28 23 -29 c20 -25 23 -40 23 -116z m670 72 l0 -50 -85 0 -85 0 0 50 0 50 85 0
85 0 0 -50z m390 0 l0 -50 -85 0 -85 0 0 50 0 50 85 0 85 0 0 -50z m-2610 -80
l0 -60 -30 0 -30 0 0 60 0 60 30 0 30 0 0 -60z m140 -1 l0 -60 -32 3 c-33 3
-33 4 -36 61 l-3 57 36 0 35 0 0 -61z m150 1 l0 -60 -35 0 -35 0 0 60 0 60 35
0 35 0 0 -60z m150 -1 l0 -60 -32 3 c-33 3 -33 4 -36 61 l-3 57 36 0 35 0 0
-61z m140 0 l0 -60 -32 3 c-33 3 -33 4 -36 61 l-3 57 36 0 35 0 0 -61z m130 1
l0 -60 -30 0 -30 0 0 60 0 60 30 0 30 0 0 -60z m3090 -195 l0 -105 -70 0 -70
0 0 105 0 105 70 0 70 0 0 -105z m-3060 -6 c0 -75 -4 -97 -22 -130 -22 -38
-22 -41 -5 -53 12 -10 17 -27 17 -65 l0 -51 -60 0 -60 0 0 98 c0 73 -4 103
-16 120 -15 22 -17 22 -35 6 -16 -15 -19 -32 -19 -121 l0 -103 -45 0 -45 0 0
100 c0 77 -4 107 -16 126 l-17 25 -23 -22 c-22 -21 -24 -30 -24 -126 l0 -103
-40 0 -40 0 0 49 c0 31 5 53 15 61 11 9 15 33 15 86 l0 74 -170 0 c-97 0 -170
4 -170 9 0 12 74 36 185 60 119 26 291 42 513 49 l62 2 0 -91z m2394 83 c7
-12 -49 -127 -90 -184 l-34 -48 20 -278 c11 -152 50 -657 85 -1122 36 -465 65
-857 65 -872 0 -27 -2 -28 -50 -28 -45 0 -52 3 -60 26 -9 22 -15 25 -52 22
-36 -2 -44 -7 -46 -25 -3 -21 -9 -23 -68 -23 l-64 0 0 36 c0 20 -9 48 -20 64
l-20 28 31 6 30 6 -3 72 -3 73 -32 3 c-18 2 -33 5 -33 7 0 2 -47 214 -105 470
l-105 466 2 392 3 392 23 -1 c29 -1 30 31 1 48 -11 7 -29 30 -40 51 -11 20
-21 37 -24 37 -3 0 -13 -17 -24 -37 -11 -21 -29 -44 -40 -51 -12 -7 -21 -21
-21 -31 0 -14 6 -17 25 -13 25 4 25 3 25 -62 l0 -66 -64 0 -64 0 -22 60 c-13
34 -28 59 -33 57 -6 -2 -20 -29 -31 -60 l-21 -57 -62 0 -63 0 0 66 c0 66 0 66
25 60 18 -5 25 -2 25 9 0 14 -28 48 -46 56 -5 2 -16 20 -25 39 l-16 35 -21
-35 c-12 -19 -33 -47 -47 -63 -32 -34 -32 -49 -1 -41 24 6 24 5 31 -91 4 -54
4 -240 0 -414 l-7 -316 -99 -440 c-54 -242 -101 -446 -104 -452 -2 -7 -18 -13
-35 -13 l-30 0 0 -74 0 -75 31 -3 30 -3 -25 -34 c-16 -21 -26 -48 -26 -68 l0
-33 -59 0 c-54 0 -59 2 -65 25 -5 21 -12 25 -46 25 -33 0 -42 -4 -52 -25 -10
-22 -17 -25 -64 -25 l-54 0 5 43 c5 37 56 710 140 1832 34 461 35 421 -8 481
-37 52 -87 149 -87 172 0 9 167 12 804 12 443 0 807 -4 810 -8z m-2194 -232
l40 -59 0 -270 0 -271 -95 0 -95 0 0 268 0 267 45 68 c25 37 50 65 55 62 6 -4
28 -33 50 -65z m245 3 l45 -68 0 -267 0 -268 -95 0 -95 0 0 271 0 270 46 65
c25 35 48 64 50 64 2 0 24 -30 49 -67z m-1185 -98 l0 -55 -40 0 -40 0 0 48 c0
58 3 62 47 62 l33 0 0 -55z m120 0 l0 -55 -35 0 -35 0 0 55 0 55 35 0 35 0 0
-55z m130 0 l0 -55 -40 0 -40 0 0 48 c0 58 3 62 47 62 l33 0 0 -55z m-185
-172 c23 -26 24 -36 25 -145 l0 -118 -60 0 -60 0 0 111 c0 104 2 112 26 145
15 19 31 34 36 34 5 0 20 -12 33 -27z m3470 -239 l35 -47 0 -148 0 -149 -85 0
-85 0 0 148 0 147 38 47 c20 26 42 47 49 48 7 0 28 -21 48 -46z m-305 -226 l0
-118 -40 0 -40 0 0 116 c0 102 3 119 21 146 l22 30 18 -29 c16 -23 19 -48 19
-145z m449 138 c16 -26 21 -50 21 -107 0 -41 -3 -91 -6 -111 -6 -36 -8 -38
-45 -38 l-39 0 0 111 c0 96 3 116 21 145 11 19 22 34 24 34 2 0 13 -15 24 -34z
m141 -138 l0 -118 -40 0 -40 0 0 116 c0 102 3 119 21 146 l22 30 18 -29 c16
-23 19 -48 19 -145z m-476 140 c12 -17 16 -50 16 -140 l0 -118 -40 0 -40 0 0
115 c0 90 4 121 16 140 20 31 29 31 48 3z m-2854 -105 c-1 -5 -7 -19 -15 -33
-8 -15 -14 -53 -15 -92 0 -70 -8 -80 -52 -70 -15 4 -18 16 -18 74 0 42 -6 80
-15 98 l-16 30 66 0 c36 0 65 -3 65 -7z m3588 -48 c19 -31 22 -48 22 -145 l0
-110 -55 0 -55 0 0 108 c0 98 2 110 25 145 14 20 29 37 33 37 4 0 17 -16 30
-35z m488 -66 c17 -19 19 -19 31 -3 7 9 19 14 28 11 12 -5 15 -24 15 -97 0
-70 3 -90 14 -90 23 0 27 -29 6 -47 -11 -10 -20 -23 -20 -29 0 -6 -7 -17 -15
-24 -12 -10 -17 -7 -26 14 -11 23 -18 26 -66 26 -37 0 -53 -4 -53 -13 0 -7 -5
-18 -12 -25 -15 -15 -38 3 -38 29 0 11 -7 19 -15 19 -9 0 -15 9 -15 25 0 16 6
25 15 25 12 0 15 17 15 90 0 73 3 92 15 97 9 3 21 -2 28 -11 12 -16 14 -16 31
3 11 12 24 21 31 21 7 0 20 -9 31 -21z m324 7 c0 -30 -30 -46 -86 -46 -53 0
-54 0 -54 30 l0 30 70 0 c54 0 70 -3 70 -14z m-50 -323 l0 -216 -38 -51 c-62
-82 -62 -82 -62 -254 l0 -159 -100 -46 -100 -46 0 -81 0 -80 -130 0 -130 0 0
-35 0 -35 -65 0 -65 0 0 -55 0 -55 -75 0 -75 0 0 -30 c0 -29 -2 -30 -45 -30
-43 0 -45 1 -45 30 0 29 -2 30 -44 30 -40 0 -44 -2 -49 -30 -6 -28 -9 -30 -52
-30 -43 0 -45 1 -45 30 0 29 -1 30 -50 30 -49 0 -50 -1 -50 -30 0 -29 -1 -30
-50 -30 -27 0 -50 3 -51 8 0 4 -8 75 -17 157 l-17 150 -32 3 c-18 2 -33 6 -33
10 0 4 -18 198 -40 432 -22 234 -40 439 -40 456 0 25 6 33 35 47 33 16 39 16
65 2 29 -15 30 -18 30 -85 l0 -70 29 0 c33 0 38 17 42 130 3 60 1 65 -19 68
-17 3 -22 10 -22 33 l0 29 169 0 c165 0 170 -1 176 -22 5 -15 2 -26 -13 -37
-19 -16 -19 -17 14 -361 18 -190 33 -348 34 -352 0 -5 9 -8 20 -8 19 0 20 7
20 93 1 83 3 95 26 122 l25 30 24 -30 c23 -28 25 -38 25 -147 0 -69 -4 -118
-10 -118 -5 0 4 -28 20 -62 17 -35 30 -68 30 -74 0 -8 222 -45 263 -44 4 0 7
173 7 385 l0 385 220 0 220 0 0 65 c0 54 -3 66 -20 75 -16 9 -20 21 -20 65 l0
55 55 0 55 0 0 -217z m-641 11 c19 -24 21 -40 21 -145 l0 -119 -50 0 -50 0 0
112 c0 99 2 115 23 145 12 18 25 33 29 33 4 0 16 -12 27 -26z m1461 -108 c0
-43 -2 -46 -57 -85 -34 -24 -51 -41 -40 -41 15 0 17 -11 17 -90 l0 -90 -40 0
-40 0 0 40 0 40 -70 0 -70 0 0 130 0 129 98 4 c53 1 121 4 150 5 l52 2 0 -44z
m-4195 -116 c4 -6 -5 -24 -19 -41 -26 -30 -36 -89 -16 -89 6 0 10 -14 10 -31
0 -25 -6 -32 -36 -45 -35 -15 -36 -17 -30 -55 6 -36 4 -41 -26 -59 -18 -11
-36 -20 -40 -20 -5 0 -8 22 -8 49 0 70 -6 81 -46 81 -32 0 -34 -2 -34 -35 0
-33 -2 -35 -35 -35 -33 0 -35 2 -35 35 0 33 -2 35 -35 35 -33 0 -35 -2 -35
-35 0 -33 -2 -35 -35 -35 -33 0 -35 2 -35 35 0 33 -2 35 -34 35 -33 0 -35 -2
-38 -37 -3 -36 -5 -38 -38 -38 -33 0 -35 2 -38 38 -3 35 -5 37 -38 37 -33 0
-34 -1 -34 -40 0 -39 -1 -40 -35 -40 -34 0 -35 1 -35 40 0 39 -1 40 -35 40
-34 0 -35 -1 -35 -40 0 -39 -1 -40 -35 -40 -34 0 -35 1 -35 40 0 39 -1 40 -35
40 -34 0 -35 -1 -35 -41 l0 -40 -37 3 c-36 3 -38 5 -41 41 -3 35 -5 37 -38 37
-33 0 -34 -1 -34 -41 0 -39 -1 -40 -32 -37 -30 3 -33 6 -36 41 -3 35 -6 38
-30 35 l-27 -3 3 -80 c6 -165 22 -482 28 -532 l5 -53 -70 0 -70 0 5 48 c8 87
34 509 34 565 0 52 -2 56 -30 66 -24 8 -30 16 -30 40 l0 31 606 0 605 0 -3 28
-3 27 -592 5 -591 5 -26 24 c-56 53 -80 51 663 51 458 0 692 -3 696 -10z
m-1705 -440 l0 -70 -40 0 -40 0 0 70 0 70 40 0 40 0 0 -70z m5790 40 c0 -14
-9 -21 -35 -26 -31 -5 -35 -10 -35 -38 l-1 -31 -32 38 c-23 26 -40 37 -59 37
-26 0 -28 -3 -28 -37 l0 -37 -39 38 c-35 34 -44 38 -80 34 -34 -3 -41 0 -41
14 0 20 30 23 228 26 115 2 122 1 122 -18z m-6100 -344 l0 -33 -110 -8 c-60
-3 -113 -6 -117 -6 -5 1 -8 16 -8 33 0 40 17 45 148 47 l87 1 0 -34z m2706
-101 c20 -31 45 -61 55 -69 35 -24 -2 -40 -96 -41 -67 0 -85 3 -93 16 -8 13
-5 22 15 40 14 13 36 43 50 67 14 23 26 42 28 42 2 0 20 -25 41 -55z m429 -11
c14 -24 35 -49 46 -55 19 -10 20 -12 6 -27 -20 -20 -167 -24 -193 -5 -15 11
-14 16 19 52 20 22 43 54 52 71 19 37 30 32 70 -36z m-3025 -94 l0 -80 -30 0
-30 0 0 80 0 80 30 0 30 0 0 -80z m5390 -50 l0 -80 -55 0 -55 0 0 80 0 80 55
0 55 0 0 -80z m-390 -413 c0 -388 1 -418 20 -472 11 -32 20 -62 20 -67 0 -4
-25 -8 -55 -8 l-55 0 0 -45 c0 -43 -1 -45 -28 -45 l-28 0 -13 323 c-7 177 -15
346 -18 375 -5 49 -7 52 -34 52 -26 0 -29 -4 -29 -30 0 -27 -3 -30 -30 -30
-27 0 -30 3 -30 30 0 27 -3 30 -29 30 -25 0 -30 -4 -33 -27 -2 -22 -9 -29 -30
-31 -25 -3 -28 0 -28 27 0 28 -3 31 -30 31 -27 0 -30 -3 -30 -30 0 -27 -3 -30
-30 -30 -27 0 -30 3 -30 30 0 27 -3 30 -31 30 -30 0 -30 -1 -27 -47 l3 -48
125 -17 c167 -24 170 -24 170 -50 0 -11 27 -68 60 -125 59 -102 60 -107 60
-179 0 -43 -4 -74 -10 -74 -5 0 -10 5 -10 10 0 21 -17 8 -48 -35 -25 -35 -32
-56 -32 -91 0 -58 -23 -94 -61 -94 -26 0 -29 3 -29 34 0 30 -3 35 -27 38 l-28
3 -3 98 -3 97 -234 0 -235 0 0 154 0 153 -32 41 c-18 22 -50 61 -71 86 -44 51
-47 89 -9 94 19 3 22 9 22 47 0 24 -4 47 -10 50 -5 3 -10 17 -10 30 l0 25 418
2 417 3 3 48 3 47 75 0 74 0 0 -413z m-2745 278 l0 -40 -59 -3 c-45 -2 -63 -8
-76 -24 -13 -16 -23 -19 -43 -14 -15 3 -27 13 -27 21 0 12 -14 15 -65 15 l-65
0 0 45 0 45 168 -2 167 -3 0 -40z m1355 0 l0 -45 -58 0 c-46 0 -60 -4 -70 -20
-7 -12 -23 -20 -38 -20 -17 0 -28 7 -31 20 -5 17 -14 20 -69 20 l-64 0 0 45 0
45 165 0 165 0 0 -45z m-2360 15 c0 -19 -7 -20 -210 -20 -203 0 -210 1 -210
20 0 19 7 20 210 20 203 0 210 -1 210 -20z m-810 -26 c0 -4 -7 -27 -17 -53
-15 -44 -15 -65 11 -401 15 -195 29 -381 33 -413 l6 -58 -54 3 -54 3 -3 53 -3
52 -55 0 c-51 0 -54 1 -50 23 3 12 8 90 11 172 3 83 10 235 15 339 9 177 8
190 -10 227 -11 21 -20 43 -20 49 0 6 36 10 95 10 52 0 95 -3 95 -6z m2080
-344 l0 -340 -50 0 -50 0 0 340 0 340 50 0 50 0 0 -340z m170 0 l0 -340 -50 0
-50 0 0 340 0 340 50 0 50 0 0 -340z m260 0 l0 -340 -50 0 -50 0 0 340 0 340
50 0 50 0 0 -340z m160 0 l0 -340 -50 0 -50 0 0 340 0 340 50 0 50 0 0 -340z
m2548 228 l3 -78 -56 0 -55 0 0 81 0 80 53 -3 52 -3 3 -77z m-4448 -126 l0
-137 90 -90 90 -90 -2 -175 -3 -175 -45 0 -45 0 -3 48 -3 47 -50 0 -49 0 0
-50 0 -50 -50 0 -50 0 0 50 0 50 -50 0 -50 0 0 -50 0 -50 -50 0 -50 0 0 50 0
50 -49 0 -50 0 -3 -47 -3 -48 -47 -3 -48 -3 0 50 0 51 -45 0 c-25 0 -45 2 -45
5 0 10 290 483 302 493 7 5 48 24 91 42 l77 32 0 44 c0 42 -1 44 -30 44 -27 0
-30 -3 -30 -31 0 -27 -3 -30 -27 -27 -22 2 -29 9 -31 31 -3 23 -8 27 -33 27
-26 0 -29 -3 -29 -30 0 -27 -3 -30 -30 -30 -27 0 -30 3 -30 30 0 27 -3 30 -30
30 -27 0 -30 -3 -30 -30 0 -27 -3 -30 -30 -30 -27 0 -30 3 -30 30 0 27 -3 30
-30 30 -27 0 -30 -3 -30 -30 0 -27 -3 -30 -30 -30 -30 0 -30 1 -30 55 l0 55
310 0 310 0 0 -138z m540 -122 l0 -70 -55 0 -55 0 0 70 0 70 55 0 55 0 0 -70z
m250 0 l0 -70 -55 0 -55 0 0 70 0 70 55 0 55 0 0 -70z m1620 0 l0 -71 -57 3
-58 3 -3 68 -3 67 61 0 60 0 0 -70z m250 0 l0 -70 -55 0 -55 0 0 70 0 70 55 0
55 0 0 -70z m1830 -171 c0 -66 4 -129 10 -139 5 -10 24 -21 40 -25 l31 -7 -3
-101 -3 -102 -42 -3 -42 -3 -3 48 -3 48 -52 3 -53 3 0 -50 0 -51 -50 0 -50 0
0 50 0 50 -50 0 -50 0 0 -50 0 -50 -50 0 -50 0 0 50 0 50 -50 0 -50 0 0 -50
c0 -49 -1 -50 -30 -50 -30 0 -30 1 -30 55 l0 55 71 36 c76 38 200 74 256 74
l33 0 0 86 0 87 -54 -6 c-62 -6 -76 3 -76 49 0 56 16 61 208 63 l142 1 0 -121z
m-1190 -299 l0 -50 -35 0 -35 0 0 50 0 50 35 0 35 0 0 -50z m-2200 -405 l0
-75 -35 0 -35 0 0 -65 c0 -64 0 -65 -37 -84 -37 -19 -38 -19 -75 0 l-38 19 0
65 0 65 -35 0 -35 0 0 75 0 75 145 0 145 0 0 -75z m1210 0 l0 -75 -35 0 -35 0
0 -63 c0 -63 0 -64 -37 -84 -38 -21 -38 -21 -75 -2 -38 19 -38 20 -38 84 l0
65 -40 0 -40 0 0 68 c0 38 3 72 7 75 3 4 71 7 150 7 l143 0 0 -75z m-720 -20
c0 -10 -10 -15 -30 -15 -20 0 -30 5 -30 15 0 10 10 15 30 15 20 0 30 -5 30
-15z m-110 -5 c0 -5 -14 -10 -31 -10 -17 0 -28 4 -24 10 3 6 17 10 31 10 13 0
24 -4 24 -10z m210 0 c0 -5 -11 -10 -25 -10 -14 0 -25 5 -25 10 0 6 11 10 25
10 14 0 25 -4 25 -10z m-320 -75 c0 -24 -6 -37 -19 -45 -30 -15 -31 -14 -31
35 0 41 2 45 25 45 22 0 25 -4 25 -35z m110 11 c0 -16 -7 -26 -22 -30 -36 -9
-38 -8 -38 24 0 27 3 30 30 30 25 0 30 -4 30 -24z m110 -1 c0 -21 -5 -25 -30
-25 -25 0 -30 4 -30 25 0 21 5 25 30 25 25 0 30 -4 30 -25z m110 1 c0 -30 -9
-37 -38 -29 -15 3 -22 13 -22 29 0 20 5 24 30 24 25 0 30 -4 30 -24z m100 -21
c0 -25 -2 -45 -4 -45 -3 0 -16 4 -30 10 -21 8 -26 16 -26 45 0 32 2 35 30 35
29 0 30 -2 30 -45z m-530 -15 c0 -36 -2 -40 -25 -40 -20 0 -25 5 -25 26 0 24
23 53 43 54 4 0 7 -18 7 -40z m612 23 c10 -9 18 -27 18 -40 0 -18 -5 -23 -25
-23 -22 0 -25 4 -25 40 0 44 5 48 32 23z m-712 -134 c0 -26 -8 -52 -25 -77
-41 -60 -65 -153 -65 -253 0 -84 -1 -89 -21 -89 -21 0 -21 3 -17 138 4 119 8
145 30 199 51 121 98 161 98 82z m80 37 c0 -2 -7 -6 -15 -10 -8 -3 -15 -1 -15
4 0 6 7 10 15 10 8 0 15 -2 15 -4z m650 -6 c0 -5 -4 -10 -9 -10 -6 0 -13 5
-16 10 -3 6 1 10 9 10 9 0 16 -4 16 -10z m117 -56 c47 -88 63 -162 63 -286 0
-101 -1 -108 -20 -108 -18 0 -20 7 -20 83 0 97 -17 165 -59 243 -36 67 -43
138 -13 132 9 -2 31 -30 49 -64z m-537 -5 c0 -16 -5 -20 -27 -17 -31 4 -42 24
-16 31 35 9 43 7 43 -14z m110 1 c0 -16 -7 -20 -30 -20 -23 0 -30 4 -30 20 0
16 7 20 30 20 23 0 30 -4 30 -20z m108 5 c10 -9 -12 -25 -34 -25 -18 0 -24 5
-24 21 0 18 4 20 27 14 16 -4 30 -8 31 -10z m-390 -80 c15 32 67 36 77 5 3
-11 10 -20 15 -20 4 0 10 9 13 20 4 15 14 20 40 20 30 0 36 -4 42 -27 l7 -28
10 28 c8 23 15 27 48 27 33 0 39 -4 45 -27 l8 -28 10 28 c9 22 17 27 43 27 24
0 34 -5 39 -20 3 -11 10 -20 15 -20 4 0 10 9 13 20 4 15 14 20 36 20 25 0 34
-6 42 -27 l11 -28 12 29 12 29 51 -57 c88 -96 100 -152 95 -438 l-2 -138 -30
0 c-29 0 -30 -1 -30 -50 0 -49 1 -50 30 -50 l30 0 0 -110 c0 -105 1 -112 24
-133 15 -14 27 -38 31 -64 l7 -43 -492 0 -492 0 7 47 c5 32 14 52 31 65 23 18
24 25 24 129 l0 109 25 0 c23 0 25 3 25 50 0 46 -2 50 -24 50 -31 0 -36 26
-36 206 0 213 26 301 113 385 l42 41 11 -26 10 -27 12 26z"/>
<path d="M12823 16023 l-113 -105 -136 77 c-75 42 -137 75 -139 73 -2 -2 26
-66 61 -143 l64 -140 -53 -50 c-29 -27 -81 -76 -115 -108 -34 -32 -62 -60 -62
-61 0 -1 71 6 157 16 87 10 159 15 160 11 2 -4 32 -70 67 -146 l64 -138 15 68
c8 37 23 107 32 156 20 100 5 91 170 107 189 19 187 11 28 101 l-140 79 29
142 c15 79 27 148 26 154 -2 7 -54 -35 -115 -93z"/>
<path d="M7090 12000 c0 -16 -7 -20 -35 -20 -33 0 -54 -20 -99 -97 -6 -10 116
-13 594 -13 l600 0 -36 55 c-33 48 -41 55 -70 55 -27 0 -34 4 -34 20 0 17 -7
20 -45 20 -38 0 -45 -3 -45 -20 0 -17 -7 -20 -50 -20 -43 0 -50 3 -50 20 0 17
-7 20 -50 20 -43 0 -50 -3 -50 -20 0 -18 -7 -20 -54 -20 -45 0 -54 3 -59 20
-4 17 -14 20 -61 20 -49 0 -56 -2 -56 -20 0 -18 -7 -20 -54 -20 -45 0 -54 3
-59 20 -4 16 -14 20 -51 20 -39 0 -46 -3 -46 -20 0 -17 -7 -20 -50 -20 -43 0
-50 3 -50 20 0 17 -7 20 -45 20 -38 0 -45 -3 -45 -20z"/>
<path d="M8870 10861 c-5 -11 -10 -40 -10 -65 0 -44 1 -46 30 -46 29 0 30 2
30 46 0 46 -13 84 -30 84 -5 0 -14 -9 -20 -19z"/>
<path d="M9140 10135 c0 -22 4 -25 35 -25 39 0 44 9 17 33 -28 25 -52 22 -52
-8z"/>
<path d="M9060 9355 l0 -25 280 0 280 0 0 25 0 25 -280 0 -280 0 0 -25z"/>
<path d="M1185 6033 c-338 -17 -792 -101 -942 -174 -79 -38 -124 -90 -179
-204 -54 -113 -71 -177 -56 -210 26 -57 172 -92 346 -81 109 6 146 21 146 61
0 46 -52 78 -156 96 -38 6 -80 16 -93 21 -20 7 -21 10 -10 25 38 45 205 79
524 104 167 13 607 7 770 -11 552 -60 1132 -210 1610 -415 603 -258 1084 -541
1440 -846 116 -99 323 -311 405 -414 168 -212 329 -502 377 -680 24 -92 27
-116 27 -290 0 -165 -3 -200 -22 -268 -85 -308 -269 -503 -647 -687 -216 -106
-426 -170 -697 -211 -169 -26 -562 -37 -763 -20 -131 11 -400 46 -436 57 -21
6 -27 146 -36 858 l-6 528 134 -6 c310 -16 562 -51 808 -112 212 -52 435 -137
447 -169 16 -41 -53 -139 -138 -195 -116 -77 -138 -126 -69 -154 104 -41 235
-46 311 -10 68 31 186 120 226 171 66 82 79 119 79 228 0 95 -2 104 -37 177
-44 92 -108 164 -203 228 -332 222 -750 320 -1366 320 l-206 0 -8 317 c-8 345
-16 407 -70 514 -33 64 -116 154 -167 180 -20 10 -40 19 -42 19 -20 0 -87
-199 -115 -340 -29 -151 -48 -296 -66 -530 -9 -113 -18 -207 -20 -209 -2 -2
-57 -14 -122 -27 -490 -100 -808 -218 -1049 -390 -160 -114 -229 -204 -241
-316 -7 -74 7 -114 83 -228 247 -373 675 -730 1175 -981 66 -32 119 -60 119
-62 0 -25 53 -306 64 -342 23 -73 73 -154 102 -165 34 -13 181 -13 243 1 85
18 131 95 131 219 0 69 1 69 88 49 111 -27 375 -66 532 -80 191 -17 596 -6
770 20 890 132 1548 588 1734 1202 73 243 76 535 7 781 -87 310 -315 681 -604
986 -476 501 -1080 900 -1873 1235 -730 310 -1554 466 -2259 430z m1081 -3040
c-3 -137 -13 -378 -21 -538 -8 -159 -15 -311 -15 -337 0 -30 -4 -48 -12 -48
-23 0 -268 104 -403 172 -304 152 -553 346 -726 566 -76 96 -77 118 -11 182
40 39 64 52 144 78 186 60 480 115 785 146 202 21 215 23 242 24 l24 2 -7
-247z"/>
<path d="M6780 5710 c-162 -22 -295 -68 -452 -156 -293 -165 -506 -395 -564
-611 -8 -32 -15 -99 -16 -149 -1 -133 31 -232 112 -339 36 -49 37 -52 37 -140
1 -157 59 -265 141 -265 49 0 83 25 118 88 15 26 33 57 40 68 l13 22 89 -24
c202 -52 381 -51 542 2 320 106 674 386 848 669 81 132 110 326 65 427 -47
104 -168 186 -288 195 -58 5 -63 7 -81 40 -20 38 -79 90 -132 117 -95 48 -327
76 -472 56z m-151 -406 l31 -6 -58 -40 c-144 -101 -351 -293 -500 -463 -50
-57 -53 -59 -67 -41 -64 84 77 311 275 446 135 91 228 122 319 104z m762 -54
c19 0 42 -12 67 -34 37 -34 37 -35 37 -113 -1 -64 -5 -87 -27 -128 -92 -177
-311 -328 -574 -397 -104 -27 -140 -31 -284 -35 -93 -2 -171 0 -179 5 -17 12
30 83 149 225 166 198 414 384 604 454 45 17 143 32 164 27 8 -2 27 -4 43 -4z"/>
<path d="M10296 4161 c-38 -42 -28 -100 100 -586 126 -481 164 -695 164 -923
0 -102 -9 -142 -33 -142 -16 0 -89 106 -250 360 -193 304 -254 397 -310 475
-141 194 -293 360 -337 370 -39 8 -93 -18 -130 -63 -161 -196 -347 -1211 -286
-1561 20 -113 41 -165 92 -220 76 -85 166 -105 228 -51 74 65 72 55 111 691
19 316 35 581 35 589 1 27 78 -105 228 -392 82 -155 168 -314 192 -353 126
-202 324 -417 396 -431 99 -18 217 30 311 129 102 106 164 254 183 438 50 487
-76 994 -351 1409 -43 65 -104 145 -134 178 -84 91 -171 125 -209 83z"/>
<path d="M13685 3901 c-44 -28 -174 -165 -243 -256 -318 -423 -457 -794 -439
-1170 7 -143 24 -213 77 -321 l40 -81 -55 -123 c-187 -415 -376 -1159 -376
-1476 0 -162 32 -236 152 -356 80 -81 151 -118 226 -118 47 0 53 3 57 23 3 12
14 83 26 157 72 450 214 971 385 1410 l56 145 114 -3 c146 -5 248 15 380 73
197 88 339 187 500 349 274 274 417 579 418 886 1 148 -26 259 -93 395 -93
188 -184 273 -303 282 -79 7 -132 -15 -277 -112 -302 -201 -602 -530 -897
-983 -41 -62 -78 -110 -83 -107 -17 11 -30 80 -30 161 0 153 51 286 216 566
179 304 234 444 234 606 0 72 0 72 -27 72 -16 0 -41 -9 -58 -19z m968 -589
c39 -43 51 -94 51 -217 0 -94 -5 -137 -22 -198 -67 -237 -226 -413 -487 -542
-60 -30 -138 -61 -172 -70 -79 -20 -183 -30 -183 -19 1 18 231 402 311 518
165 237 430 546 470 546 9 0 23 -8 32 -18z"/>
<path d="M8075 3869 c-304 -25 -583 -99 -828 -220 -112 -55 -166 -96 -210
-160 -61 -90 -81 -158 -82 -279 0 -121 11 -154 77 -219 62 -60 145 -76 608
-111 421 -32 665 -72 841 -139 74 -28 143 -89 165 -146 l17 -45 -27 -35 c-31
-40 -86 -80 -171 -122 -234 -118 -803 -195 -1035 -140 -85 20 -172 65 -196
102 -12 18 -15 37 -11 62 21 127 185 159 402 78 293 -109 326 -118 410 -117
129 1 279 40 341 87 33 25 60 84 50 110 -13 34 -223 118 -376 150 -214 45
-506 58 -648 29 -96 -19 -211 -74 -248 -116 -63 -75 -110 -220 -95 -290 23
-100 144 -256 265 -342 260 -184 599 -251 971 -190 167 28 309 85 443 177 169
116 227 230 239 463 10 193 -22 303 -115 405 -99 108 -240 180 -427 218 -95
19 -184 27 -545 51 -323 21 -570 79 -570 134 0 18 76 47 207 80 184 46 322 63
718 91 387 27 577 52 654 86 80 35 141 107 141 167 0 36 -9 44 -80 72 -218 86
-598 133 -885 109z"/>
<path d="M12315 3844 c-298 -27 -955 -118 -994 -139 -39 -19 -43 -36 -24 -92
33 -96 138 -169 296 -203 31 -7 57 -18 56 -24 0 -6 -26 -89 -57 -185 l-57
-175 -73 -12 c-39 -7 -87 -21 -104 -31 -39 -23 -42 -51 -12 -155 16 -59 17
-75 6 -137 -7 -39 -36 -131 -66 -204 -82 -201 -92 -272 -56 -413 32 -125 73
-199 159 -285 97 -97 132 -110 299 -110 290 1 548 105 890 359 63 47 105 86
109 100 8 35 -3 89 -33 149 -40 83 -53 88 -224 87 -131 -1 -167 -5 -379 -48
-129 -26 -265 -50 -302 -53 l-67 -6 53 149 c28 82 63 181 76 219 l24 70 248
-3 c277 -3 377 6 454 44 44 21 54 31 63 62 13 49 13 141 -1 181 -21 59 -109
74 -415 72 l-231 -1 46 148 47 147 200 7 c452 17 588 33 675 84 28 16 35 27
37 57 8 93 -68 210 -188 292 l-72 50 -172 1 c-94 1 -189 0 -211 -2z"/>
<path d="M6400 3804 c-59 -50 -75 -112 -110 -409 -47 -409 -63 -1218 -29
-1420 22 -126 84 -193 199 -213 69 -13 135 -1 203 35 l52 28 6 170 c11 274 -8
788 -51 1376 -19 257 -81 410 -183 448 -41 16 -52 14 -87 -15z"/>
</g>
</svg>
